<?xml version="1.0" encoding="utf-8"?>
<!-- Generator: Adobe Illustrator 22.1.0, SVG Export Plug-In . SVG Version: 6.00 Build 0)  -->
<svg version="1.1" id="Laag_1" xmlns="http://www.w3.org/2000/svg" xmlns:xlink="http://www.w3.org/1999/xlink" x="0px" y="0px"
	 viewBox="0 0 144 180" style="enable-background:new 0 0 144 180;" xml:space="preserve">
<style type="text/css">
	.st0{fill:#FFFFFF;}
</style>
<title>Rest</title>
<path class="st0" d="M48.7,138.7h46.6c5.2,0,9.3-4.2,9.3-9.3V28.8c0-5.2-4.2-9.3-9.3-9.3H91V7.3c0-1.1-0.9-2-2-2H55
	c-1.1,0-2,0.9-2,2v12.1h-4.3c-5.2,0-9.3,4.2-9.3,9.3v100.5C39.4,134.5,43.5,138.7,48.7,138.7z M57,9.3h30v10.1H57V9.3z M43.4,28.8
	c0-2.9,2.4-5.3,5.3-5.3h46.6c2.9,0,5.3,2.4,5.3,5.3v100.5c0,2.9-2.4,5.3-5.3,5.3H48.7c-2.9,0-5.3-2.4-5.3-5.3L43.4,28.8z"/>
<path class="st0" d="M58.5,88.5h7.4l-1.1,25.4c0,1,0.6,1.8,1.5,2c0.2,0,0.3,0.1,0.5,0.1c0.8,0,1.5-0.4,1.8-1.2l20.8-44.5
	c0.5-1,0-2.2-1-2.7c-0.3-0.1-0.6-0.2-0.8-0.2h-8.8l5.1-16c0.3-1.1-0.3-2.2-1.3-2.5c-0.2-0.1-0.4-0.1-0.6-0.1H61
	c-1.1,0-1.9,0.8-2,1.9l-2.5,35.6c-0.1,1.1,0.8,2.1,1.9,2.1C58.4,88.5,58.5,88.5,58.5,88.5z M62.9,52.9h16.3l-5.1,16
	c-0.3,1.1,0.3,2.2,1.3,2.5c0.2,0.1,0.4,0.1,0.6,0.1h8.4l-15.3,32.5L70,86.6c0-1.1-0.8-2-1.9-2.1c0,0-0.1,0-0.1,0h-7.3L62.9,52.9z"/>
</svg>
