<svg xmlns="http://www.w3.org/2000/svg" data-name="Layer 1" viewBox="0 0 144 180" x="0px" y="0px"><title>Rest</title><path d="M48.7,138.656H95.3a9.34,9.34,0,0,0,9.33-9.329V28.809a9.341,9.341,0,0,0-9.33-9.33H91.015V7.344a2,2,0,0,0-2-2H54.985a2,2,0,0,0-2,2V19.479H48.7a9.341,9.341,0,0,0-9.33,9.33V129.327A9.34,9.34,0,0,0,48.7,138.656ZM56.985,9.344h30.03V19.479H56.985ZM43.373,28.809a5.336,5.336,0,0,1,5.33-5.33H95.3a5.336,5.336,0,0,1,5.33,5.33V129.327a5.336,5.336,0,0,1-5.33,5.329H48.7a5.336,5.336,0,0,1-5.33-5.329Z"/><path d="M58.5,88.489h7.391l-1.141,25.438a2,2,0,0,0,1.52,2.031,1.967,1.967,0,0,0,.479.058,2,2,0,0,0,1.81-1.151L89.406,70.4a2,2,0,0,0-1.81-2.849H78.771l5.077-16.025a2,2,0,0,0-1.907-2.6h-20.9a2,2,0,0,0-2,1.857L56.5,86.346A2,2,0,0,0,58.5,88.489Zm4.409-35.564h16.3L74.133,68.95a2,2,0,0,0,1.906,2.6h8.41L69.193,104.086l.786-17.508a2,2,0,0,0-2-2.089H60.646Z"/></svg>