<svg xmlns="http://www.w3.org/2000/svg" xmlns:xlink="http://www.w3.org/1999/xlink" viewBox="0 0 66 82.5" version="1.1" x="0px" y="0px"><title>barbell press</title><desc>Created with Sketch.</desc><g stroke="none" stroke-width="1" fill="none" fill-rule="evenodd"><g transform="translate(-177.000000, -297.000000)" fill="#000000" fill-rule="nonzero"><path d="M211,326.972097 L211,337.729651 L217.863779,349.496129 C217.952992,349.649065 218,349.822945 218,350 L218,362 C218,362.552285 217.552285,363 217,363 C216.447715,363 216,362.552285 216,362 L216,350.270349 L210,339.984635 L204,350.270349 L204,362 C204,362.552285 203.552285,363 203,363 C202.447715,363 202,362.552285 202,362 L202,350 C202,349.822945 202.047008,349.649065 202.136221,349.496129 L209,337.729651 L209,326.972097 C204.768093,326.735876 200.560572,325.000534 196.390289,321.792624 C196.178603,321.629789 196.040848,321.389042 196.007722,321.124035 L194.367218,308 L190,308 L190,314 C190,315.656854 188.656854,317 187,317 L183,317 C181.343146,317 180,315.656854 180,314 L180,308 L178,308 C177.447715,308 177,307.552285 177,307 C177,306.447715 177.447715,306 178,306 L180,306 L180,300 C180,298.343146 181.343146,297 183,297 L187,297 C188.656854,297 190,298.343146 190,300 L190,306 L194.117218,306 L194.007722,305.124035 C193.93922,304.576015 194.327945,304.076225 194.875965,304.007722 C195.423985,303.93922 195.923775,304.327945 195.992278,304.875965 L196.132782,306 L206.123993,306 C207.272243,305.362837 208.593749,305 210,305 C211.406251,305 212.727757,305.362837 213.876007,306 L223.867218,306 L224.007722,304.875965 C224.076225,304.327945 224.576015,303.93922 225.124035,304.007722 C225.672055,304.076225 226.06078,304.576015 225.992278,305.124035 L225.882782,306 L230,306 L230,300 C230,298.343146 231.343146,297 233,297 L237,297 C238.656854,297 240,298.343146 240,300 L240,306 L242,306 C242.552285,306 243,306.447715 243,307 C243,307.552285 242.552285,308 242,308 L240,308 L240,314 C240,315.656854 238.656854,317 237,317 L233,317 C231.343146,317 230,315.656854 230,314 L230,308 L225.632782,308 L223.992278,321.124035 C223.959152,321.389042 223.821397,321.629789 223.609711,321.792624 C219.439428,325.000534 215.231907,326.735876 211,326.972097 L211,326.972097 Z M216.245371,308 C217.343282,309.369598 218,311.108107 218,313 C218,317.418278 214.418278,321 210,321 C205.581722,321 202,317.418278 202,313 C202,311.108107 202.656718,309.369598 203.754629,308 L196.382782,308 L197.940052,320.458162 C201.995741,323.496307 206.010762,325 210,325 C213.989238,325 218.004259,323.496307 222.059948,320.458162 L223.617218,308 L216.245371,308 L216.245371,308 Z M210,319 C213.313708,319 216,316.313708 216,313 C216,309.686292 213.313708,307 210,307 C206.686292,307 204,309.686292 204,313 C204,316.313708 206.686292,319 210,319 Z M233,299 C232.447715,299 232,299.447715 232,300 L232,314 C232,314.552285 232.447715,315 233,315 L237,315 C237.552285,315 238,314.552285 238,314 L238,300 C238,299.447715 237.552285,299 237,299 L233,299 Z M183,299 C182.447715,299 182,299.447715 182,300 L182,314 C182,314.552285 182.447715,315 183,315 L187,315 C187.552285,315 188,314.552285 188,314 L188,300 C188,299.447715 187.552285,299 187,299 L183,299 Z"/></g></g></svg>