<?xml version="1.0" encoding="utf-8"?>
<!-- Generator: Adobe Illustrator 22.1.0, SVG Export Plug-In . SVG Version: 6.00 Build 0)  -->
<svg version="1.1" id="Laag_1" xmlns="http://www.w3.org/2000/svg" xmlns:xlink="http://www.w3.org/1999/xlink" x="0px" y="0px"
	 viewBox="0 0 66 82.5" style="enable-background:new 0 0 66 82.5;" xml:space="preserve">
<style type="text/css">
	.st0{fill:#FFFFFF;}
</style>
<title>barbell press</title>
<desc>Created with Sketch.</desc>
<g>
	<g transform="translate(-177.000000, -297.000000)">
		<path class="st0" d="M211,327v10.8l6.9,11.8c0.1,0.2,0.1,0.3,0.1,0.5v12c0,0.6-0.4,1-1,1s-1-0.4-1-1v-11.7l-6-10.3l-6,10.3V362
			c0,0.6-0.4,1-1,1s-1-0.4-1-1v-12c0-0.2,0-0.4,0.1-0.5l6.9-11.8V327c-4.2-0.2-8.4-2-12.6-5.2c-0.2-0.2-0.3-0.4-0.4-0.7l-1.6-13.1
			H190v6c0,1.7-1.3,3-3,3h-4c-1.7,0-3-1.3-3-3v-6h-2c-0.6,0-1-0.4-1-1s0.4-1,1-1h2v-6c0-1.7,1.3-3,3-3h4c1.7,0,3,1.3,3,3v6h4.1
			l-0.1-0.9c-0.1-0.5,0.3-1,0.9-1.1s1,0.3,1.1,0.9l0.1,1.1h10c1.1-0.6,2.5-1,3.9-1s2.7,0.4,3.9,1h10l0.1-1.1
			c0.1-0.5,0.6-0.9,1.1-0.9s0.9,0.6,0.9,1.1l-0.1,0.9h4.1v-6c0-1.7,1.3-3,3-3h4c1.7,0,3,1.3,3,3v6h2c0.6,0,1,0.4,1,1s-0.4,1-1,1h-2
			v6c0,1.7-1.3,3-3,3h-4c-1.7,0-3-1.3-3-3v-6h-4.4l-1.6,13.1c0,0.3-0.2,0.5-0.4,0.7C219.4,325,215.2,326.7,211,327L211,327z
			 M216.2,308c1.1,1.4,1.8,3.1,1.8,5c0,4.4-3.6,8-8,8s-8-3.6-8-8c0-1.9,0.7-3.6,1.8-5h-7.4l1.6,12.5c4.1,3,8.1,4.5,12.1,4.5
			s8-1.5,12.1-4.5l1.6-12.5H216.2L216.2,308z M210,319c3.3,0,6-2.7,6-6s-2.7-6-6-6s-6,2.7-6,6S206.7,319,210,319z M233,299
			c-0.6,0-1,0.4-1,1v14c0,0.6,0.4,1,1,1h4c0.6,0,1-0.4,1-1v-14c0-0.6-0.4-1-1-1H233z M183,299c-0.6,0-1,0.4-1,1v14c0,0.6,0.4,1,1,1
			h4c0.6,0,1-0.4,1-1v-14c0-0.6-0.4-1-1-1H183z"/>
	</g>
</g>
</svg>
