<svg xmlns="http://www.w3.org/2000/svg" data-name="Layer 1" viewBox="0 0 100 125" x="0px" y="0px"><title>03</title><path d="M50,14.81c-22.19,0-40.25,14.52-40.25,32.38a28.64,28.64,0,0,0,8.54,20L16.24,81.77a3,3,0,0,0,4.14,3.18l16.69-7.09A49.24,49.24,0,0,0,50,79.56c22.19,0,40.25-14.52,40.25-32.37S72.19,14.81,50,14.81Zm0,58.75a43.07,43.07,0,0,1-12.27-1.75,3,3,0,0,0-2,.11L22.92,77.35l1.53-10.86a3,3,0,0,0-.92-2.6c-5-4.7-7.77-10.63-7.77-16.7,0-14.54,15.36-26.37,34.25-26.37S84.25,32.64,84.25,47.19,68.89,73.56,50,73.56Z"/></svg>