<?xml version="1.0" encoding="utf-8"?>
<!-- Generator: Adobe Illustrator 22.1.0, SVG Export Plug-In . SVG Version: 6.00 Build 0)  -->
<svg version="1.1" id="Laag_1" xmlns="http://www.w3.org/2000/svg" xmlns:xlink="http://www.w3.org/1999/xlink" x="0px" y="0px"
	 viewBox="0 0 100 125" style="enable-background:new 0 0 100 125;" xml:space="preserve">
<style type="text/css">
	.st0{fill:#FFFFFF;}
</style>
<title>03</title>
<path class="st0" d="M50,14.8c-22.2,0-40.2,14.5-40.2,32.4c0.1,7.5,3.2,14.7,8.5,20l-2.1,14.6c-0.2,1.6,0.9,3.2,2.6,3.4
	c0.5,0.1,1.1,0,1.6-0.2l16.7-7.1c4.2,1.1,8.6,1.7,12.9,1.7c22.2,0,40.2-14.5,40.2-32.4S72.2,14.8,50,14.8z M50,73.6
	c-4.2,0-8.3-0.6-12.3-1.8c-0.7-0.2-1.4-0.2-2,0.1l-12.8,5.4l1.5-10.9c0.1-1-0.2-1.9-0.9-2.6c-5-4.7-7.8-10.6-7.8-16.7
	c0-14.5,15.4-26.4,34.2-26.4s34.2,11.8,34.2,26.4S68.9,73.6,50,73.6z"/>
</svg>
