<?xml version="1.0" encoding="utf-8"?>
<!-- Generator: Adobe Illustrator 22.1.0, SVG Export Plug-In . SVG Version: 6.00 Build 0)  -->
<svg version="1.1" xmlns="http://www.w3.org/2000/svg" xmlns:xlink="http://www.w3.org/1999/xlink" x="0px" y="0px"
	 viewBox="0 0 100 100" style="enable-background:new 0 0 100 100;" xml:space="preserve">
<g id="Laag_2">
</g>
<g id="Laag_1">
	<path d="M46.5,70.5c0-0.5,0.1-0.9,0.3-1.4c0.2-0.4,0.4-0.8,0.7-1.1s0.7-0.6,1.1-0.8C49,67.1,49.5,67,50,67c0.5,0,0.9,0.1,1.4,0.3
		c0.4,0.2,0.8,0.4,1.1,0.8s0.6,0.7,0.7,1.1c0.2,0.4,0.3,0.9,0.3,1.4c0,0.5-0.1,1-0.3,1.4c-0.2,0.4-0.4,0.8-0.7,1.1s-0.7,0.6-1.1,0.7
		C50.9,73.9,50.5,74,50,74c-0.5,0-0.9-0.1-1.4-0.3c-0.4-0.2-0.8-0.4-1.1-0.7s-0.6-0.7-0.7-1.1C46.6,71.5,46.5,71,46.5,70.5z
		 M52.6,35v17.2c0,0.9,0,1.8,0,2.6c0,0.9-0.1,1.7-0.1,2.6s-0.1,1.8-0.2,2.7C52.1,61,52,62,51.9,63h-3.6c-0.1-1-0.2-2-0.3-2.9
		c-0.1-0.9-0.2-1.8-0.2-2.7c-0.1-0.9-0.1-1.7-0.1-2.6c0-0.9,0-1.7,0-2.6V35H52.6z M50,13.5l41,66H9L50,13.5 M50,9.5
		c-1.4,0-2.7,0.7-3.4,1.9l-41,66c-0.8,1.2-0.8,2.8-0.1,4.1c0.7,1.3,2,2.1,3.5,2.1h82c1.5,0,2.8-0.8,3.5-2.1c0.7-1.3,0.7-2.8-0.1-4.1
		l-41-66C52.7,10.2,51.4,9.5,50,9.5L50,9.5z"/>
</g>
</svg>
