<?xml version="1.0" encoding="utf-8"?>
<!-- Generator: Adobe Illustrator 22.1.0, SVG Export Plug-In . SVG Version: 6.00 Build 0)  -->
<svg version="1.1" id="Laag_1" xmlns="http://www.w3.org/2000/svg" xmlns:xlink="http://www.w3.org/1999/xlink" x="0px" y="0px"
	 viewBox="0 0 100 125" style="enable-background:new 0 0 100 125;" xml:space="preserve">
<style type="text/css">
	.st0{fill:#FFFFFF;}
</style>
<path class="st0" d="M33,41l8.7-8.7c-0.2-0.2-0.3-0.5-0.5-0.7l-8.9,8.9L33,41z"/>
<path class="st0" d="M31.5,39.9l9.1-9.1c-0.2-0.2-0.4-0.4-0.6-0.6l-9.3,9.3L31.5,39.9z"/>
<path class="st0" d="M30.1,36.1l7.9-7.9c-0.2-0.2-0.5-0.3-0.7-0.5L30.1,35L30.1,36.1L30.1,36.1z"/>
<path class="st0" d="M30.1,33.6l6.3-6.3c-0.3-0.1-0.5-0.3-0.8-0.4l-5.6,5.6V33.6z"/>
<path class="st0" d="M30.1,31l4.6-4.6c-0.3-0.1-0.6-0.2-0.9-0.3l-3.7,3.7C30.1,29.8,30.1,31,30.1,31z"/>
<path class="st0" d="M30.1,28.5l2.6-2.6c-0.3-0.1-0.7-0.1-1-0.2l-1.6,1.6V28.5z"/>
<path class="st0" d="M30.1,38.7l9.3-9.3c-0.2-0.2-0.4-0.4-0.6-0.6l-8.7,8.7V38.7z"/>
<path class="st0" d="M30.6,25.5c-0.1,0-0.3,0-0.4,0v0.4L30.6,25.5z"/>
<path class="st0" d="M34.5,42l8.1-8.1c-0.1-0.3-0.2-0.5-0.4-0.8l-8.4,8.4L34.5,42z"/>
<path class="st0" d="M37.4,44.2l6.3-6.3c0-0.3-0.1-0.7-0.2-1l-6.8,6.8L37.4,44.2z"/>
<path class="st0" d="M36,43.1l7.3-7.3c-0.1-0.3-0.2-0.6-0.3-0.9l-7.7,7.7L36,43.1z"/>
<path class="st0" d="M40.4,46.3l2.9-2.9c0.1-0.5,0.3-1,0.3-1.5l-3.9,3.9L40.4,46.3z"/>
<path class="st0" d="M38.9,45.3l4.9-4.9c0-0.2,0-0.5,0-0.7c0-0.2,0-0.3,0-0.5l-5.6,5.6L38.9,45.3z"/>
<path class="st0" d="M41.6,47.2c0.3-0.5,0.6-1.1,0.9-1.6l-1.3,1.3L41.6,47.2z"/>
<g>
	<path class="st0" d="M87.7,82.6H12.3c-2.6,0-4.8-2.1-4.8-4.8V22.1c0-2.6,2.1-4.8,4.8-4.8h75.5c2.6,0,4.8,2.1,4.8,4.8v55.7
		C92.5,80.5,90.4,82.6,87.7,82.6z M12.3,19.3c-1.6,0-2.9,1.3-2.9,2.9v55.7c0,1.6,1.3,2.9,2.9,2.9h75.5c1.6,0,2.9-1.3,2.9-2.9V22.1
		c0-1.6-1.3-2.9-2.9-2.9H12.3z"/>
</g>
<rect x="56.2" y="36.2" class="st0" width="3.7" height="12"/>
<rect x="61.9" y="37.2" class="st0" width="3.7" height="11"/>
<rect x="67.5" y="39.2" class="st0" width="3.7" height="9"/>
<rect x="73.2" y="34.2" class="st0" width="3.7" height="14"/>
<rect x="78.9" y="34.2" class="st0" width="3.7" height="14"/>
<polygon class="st0" points="82.4,56.4 63.2,65.8 56.1,61.6 43.5,67.3 23,69.2 15,74.9 31.2,74.9 48.1,74.9 65.4,74.9 71.3,74.9 
	82.3,74.9 "/>
<path class="st0" d="M29.6,53.8c-7.8,0-14.2-6.4-14.2-14.2c0-7.6,6.1-13.9,13.6-14.1v14h0l11.8,8.6c0,0,0,0,0,0
	C38.4,51.5,34.2,53.8,29.6,53.8z"/>
</svg>
