<?xml version="1.0" encoding="utf-8"?>
<!-- Generator: Adobe Illustrator 22.1.0, SVG Export Plug-In . SVG Version: 6.00 Build 0)  -->
<svg version="1.1" id="Laag_1" xmlns="http://www.w3.org/2000/svg" xmlns:xlink="http://www.w3.org/1999/xlink" x="0px" y="0px"
	 viewBox="0 0 100 125" style="enable-background:new 0 0 100 125;" xml:space="preserve">
<style type="text/css">
	.st0{fill:#FFFFFF;}
	.st1{fill:none;}
</style>
<g>
	<g>
		<path class="st0" d="M89.8,16.7H10.2c-3.9,0-7.1-3.2-7.1-7.1s3.2-7.1,7.1-7.1h79.5c3.9,0,7.1,3.2,7.1,7.1S93.7,16.7,89.8,16.7z"/>
	</g>
	<g>
		<path class="st0" d="M89.8,57.1H10.2c-3.9,0-7.1-3.2-7.1-7.1s3.2-7.1,7.1-7.1h79.5c3.9,0,7.1,3.2,7.1,7.1S93.7,57.1,89.8,57.1z"/>
	</g>
	<g>
		<path class="st0" d="M89.8,97.5H10.2c-3.9,0-7.1-3.2-7.1-7.1s3.2-7.1,7.1-7.1h79.5c3.9,0,7.1,3.2,7.1,7.1S93.7,97.5,89.8,97.5z"/>
	</g>
</g>
<rect class="st1" width="100" height="100"/>
</svg>
