<svg xmlns="http://www.w3.org/2000/svg" xmlns:xlink="http://www.w3.org/1999/xlink" version="1.1" x="0px" y="0px" viewBox="0 0 100 125" style="enable-background:new 0 0 100 100;" xml:space="preserve"><style type="text/css">
	.st0{fill:none;}
</style><g><g><path d="M89.8,16.7H10.2c-3.9,0-7.1-3.2-7.1-7.1s3.2-7.1,7.1-7.1h79.5c3.9,0,7.1,3.2,7.1,7.1S93.7,16.7,89.8,16.7z"/></g><g><path d="M89.8,57.1H10.2c-3.9,0-7.1-3.2-7.1-7.1s3.2-7.1,7.1-7.1h79.5c3.9,0,7.1,3.2,7.1,7.1S93.7,57.1,89.8,57.1z"/></g><g><path d="M89.8,97.5H10.2c-3.9,0-7.1-3.2-7.1-7.1s3.2-7.1,7.1-7.1h79.5c3.9,0,7.1,3.2,7.1,7.1S93.7,97.5,89.8,97.5z"/></g></g><rect y="0" class="st0" width="100" height="100"/></svg>