<?xml version="1.0" encoding="utf-8"?>
<!-- Generator: Adobe Illustrator 22.1.0, SVG Export Plug-In . SVG Version: 6.00 Build 0)  -->
<svg version="1.1" id="Laag_1" xmlns="http://www.w3.org/2000/svg" xmlns:xlink="http://www.w3.org/1999/xlink" x="0px" y="0px"
	 viewBox="0 0 66 75" style="enable-background:new 0 0 66 75;" xml:space="preserve">
<style type="text/css">
	.st0{fill:#FFFFFF;}
</style>
<title>deadlift</title>
<desc>Created with Sketch.</desc>
<g>
	<g transform="translate(-57.000000, -303.000000)">
		<path class="st0" d="M70,342v6c0,1.7-1.3,3-3,3h-4c-1.7,0-3-1.3-3-3v-6h-2c-0.6,0-1-0.4-1-1s0.4-1,1-1h2v-6c0-1.7,1.3-3,3-3h4
			c1.7,0,3,1.3,3,3v6h7.4l2.6-13.2c0-0.2,0.2-0.4,0.3-0.6c3.2-2.8,6.4-4.3,9.7-4.3s6.5,1.4,9.7,4.3c0.2,0.1,0.3,0.3,0.3,0.6
			l2.6,13.2h7.4v-6c0-1.7,1.3-3,3-3h4c1.7,0,3,1.3,3,3v6h2c0.6,0,1,0.4,1,1s-0.4,1-1,1h-2v6c0,1.7-1.3,3-3,3h-4c-1.7,0-3-1.3-3-3v-6
			h-7c0,0.5-0.3,0.9-0.8,1c-0.5,0.1-1.1-0.2-1.2-0.8l0-0.2h-8.4l4.3,8.6c0.1,0.1,0.1,0.3,0.1,0.4v11c0,0.6-0.4,1-1,1s-1-0.4-1-1
			v-10.8l-4.6-9.2h-0.8l-4.6,9.2V362c0,0.6-0.4,1-1,1s-1-0.4-1-1v-11c0-0.2,0-0.3,0.1-0.4l4.3-8.6H79l0,0.2
			c-0.1,0.5-0.6,0.9-1.2,0.8c-0.5-0.1-0.8-0.5-0.8-1H70z M79.4,340h9l0.6-1.2v-14.7c-2.3,0.3-4.7,1.4-7.1,3.5L79.4,340z M91,324.1
			v14.7l0.6,1.2h9l-2.5-12.5C95.7,325.5,93.3,324.3,91,324.1z M113,333c-0.6,0-1,0.4-1,1v14c0,0.6,0.4,1,1,1h4c0.6,0,1-0.4,1-1v-14
			c0-0.6-0.4-1-1-1H113z M63,333c-0.6,0-1,0.4-1,1v14c0,0.6,0.4,1,1,1h4c0.6,0,1-0.4,1-1v-14c0-0.6-0.4-1-1-1H63z M90,319
			c-4.4,0-8-3.6-8-8s3.6-8,8-8s8,3.6,8,8S94.4,319,90,319z M90,317c3.3,0,6-2.7,6-6s-2.7-6-6-6s-6,2.7-6,6S86.7,317,90,317z"/>
	</g>
</g>
</svg>
