<svg xmlns="http://www.w3.org/2000/svg" xmlns:xlink="http://www.w3.org/1999/xlink" viewBox="0 0 66 75" version="1.1" x="0px" y="0px"><title>deadlift</title><desc>Created with Sketch.</desc><g stroke="none" stroke-width="1" fill="none" fill-rule="evenodd"><g transform="translate(-57.000000, -303.000000)" fill="#000000" fill-rule="nonzero"><path d="M70,342 L70,348 C70,349.656854 68.6568542,351 67,351 L63,351 C61.3431458,351 60,349.656854 60,348 L60,342 L58,342 C57.4477153,342 57,341.552285 57,341 C57,340.447715 57.4477153,340 58,340 L60,340 L60,334 C60,332.343146 61.3431458,331 63,331 L67,331 C68.6568542,331 70,332.343146 70,334 L70,340 L77.3801961,340 L80.0194193,326.803884 C80.0620716,326.590623 80.1730861,326.39708 80.3356362,326.252591 C83.5065482,323.434002 86.7330532,322 90,322 C93.2669468,322 96.4934518,323.434002 99.6643638,326.252591 C99.8269139,326.39708 99.9379284,326.590623 99.9805807,326.803884 L102.619804,340 L110,340 L110,334 C110,332.343146 111.343146,331 113,331 L117,331 C118.656854,331 120,332.343146 120,334 L120,340 L122,340 C122.552285,340 123,340.447715 123,341 C123,341.552285 122.552285,342 122,342 L120,342 L120,348 C120,349.656854 118.656854,351 117,351 L113,351 C111.343146,351 110,349.656854 110,348 L110,342 L103.000192,342 C103.000693,342.46734 102.671844,342.885435 102.196116,342.980581 C101.654556,343.088893 101.127731,342.737676 101.019419,342.196116 L100.980196,342 L92.618034,342 L96.8944272,350.552786 C96.9638549,350.691642 97,350.844755 97,351 L97,362 C97,362.552285 96.5522847,363 96,363 C95.4477153,363 95,362.552285 95,362 L95,351.236068 L90.381966,342 L89.618034,342 L85,351.236068 L85,362 C85,362.552285 84.5522847,363 84,363 C83.4477153,363 83,362.552285 83,362 L83,351 C83,350.844755 83.0361451,350.691642 83.1055728,350.552786 L87.381966,342 L79.0198039,342 L78.9805807,342.196116 C78.8722687,342.737676 78.3454436,343.088893 77.8038839,342.980581 C77.3281556,342.885435 76.9993072,342.46734 76.9998077,342 L70,342 Z M79.4198039,340 L88.381966,340 L89,338.763932 L89,324.054897 C86.6715805,324.310276 84.3126939,325.45812 81.9140742,327.528649 L79.4198039,340 Z M91,324.054897 L91,338.763932 L91.618034,340 L100.580196,340 L98.0859258,327.528648 C95.687306,325.45812 93.3284195,324.310276 91,324.054897 Z M113,333 C112.447715,333 112,333.447715 112,334 L112,348 C112,348.552285 112.447715,349 113,349 L117,349 C117.552285,349 118,348.552285 118,348 L118,334 C118,333.447715 117.552285,333 117,333 L113,333 Z M63,333 C62.4477153,333 62,333.447715 62,334 L62,348 C62,348.552285 62.4477153,349 63,349 L67,349 C67.5522847,349 68,348.552285 68,348 L68,334 C68,333.447715 67.5522847,333 67,333 L63,333 Z M90,319 C85.581722,319 82,315.418278 82,311 C82,306.581722 85.581722,303 90,303 C94.418278,303 98,306.581722 98,311 C98,315.418278 94.418278,319 90,319 Z M90,317 C93.3137085,317 96,314.313708 96,311 C96,307.686292 93.3137085,305 90,305 C86.6862915,305 84,307.686292 84,311 C84,314.313708 86.6862915,317 90,317 Z"/></g></g></svg>