<?xml version="1.0" encoding="utf-8"?>
<!-- Generator: Adobe Illustrator 22.1.0, SVG Export Plug-In . SVG Version: 6.00 Build 0)  -->
<svg version="1.1" xmlns="http://www.w3.org/2000/svg" xmlns:xlink="http://www.w3.org/1999/xlink" x="0px" y="0px"
	 viewBox="0 0 100 125" style="enable-background:new 0 0 100 125;" xml:space="preserve">
<style type="text/css">
	.st0{fill:none;stroke:#FFFFFF;stroke-width:3;stroke-miterlimit:10;}
</style>
<g id="Laag_2">
</g>
<g id="Laag_1">
	<rect x="32.2" y="46.9" class="st0" width="36.6" height="7.6"/>
	<path class="st0" d="M7,46.9c-1.8,0-3.3,1.5-3.3,3.3v1c0,1.8,1.5,3.3,3.3,3.3h3.5v-7.6H7z"/>
	<path class="st0" d="M93.7,46.9h-3.3v7.6h3.3c1.8,0,3.3-1.5,3.3-3.3v-1C97,48.3,95.5,46.9,93.7,46.9z"/>
	<path class="st0" d="M32.2,46.9V28.6c0-1.8-1.5-3.3-3.3-3.3h-7.8c-1.8,0-3.3,1.5-3.3,3.3v7.5c0,0.2,0.1,0.4,0.1,0.7v10.1"/>
	<path class="st0" d="M17.9,54.5v10.1c0,0.2,0,0.4-0.1,0.7v7.5c0,1.8,1.5,3.3,3.3,3.3h7.8c1.8,0,3.3-1.5,3.3-3.3V54.5"/>
	<line class="st0" x1="32.2" y1="54.5" x2="32.2" y2="46.9"/>
	<line class="st0" x1="17.9" y1="46.9" x2="17.9" y2="54.5"/>
	<path class="st0" d="M83.1,46.9V36.8c0-0.3,0-0.5,0.1-0.7v-7.5c0-1.8-1.5-3.3-3.3-3.3h-7.8c-1.8,0-3.3,1.5-3.3,3.3v18.3"/>
	<path class="st0" d="M68.8,54.5v18.3c0,1.8,1.5,3.3,3.3,3.3h7.8c1.8,0,3.3-1.5,3.3-3.3v-7.5c-0.1-0.2-0.1-0.5-0.1-0.7V54.5"/>
	<line class="st0" x1="83.1" y1="54.5" x2="83.1" y2="46.9"/>
	<line class="st0" x1="68.8" y1="46.9" x2="68.8" y2="54.5"/>
	<path class="st0" d="M17.8,46.9V36.1c-0.3-1.5-1.6-2.6-3.2-2.6h-0.8c-1.8,0-3.3,1.5-3.3,3.3v10.1"/>
	<path class="st0" d="M10.5,54.5v10.1c0,1.8,1.5,3.3,3.3,3.3h0.8c1.6,0,2.9-1.1,3.2-2.6V54.5"/>
	<line class="st0" x1="10.5" y1="46.9" x2="10.5" y2="54.5"/>
	<line class="st0" x1="17.8" y1="54.5" x2="17.8" y2="46.9"/>
	<rect x="17.8" y="46.9" class="st0" width="0.1" height="7.6"/>
	<path class="st0" d="M83.2,54.5v10.8c0.3,1.5,1.6,2.5,3.2,2.5h0.8c1.8,0,3.3-1.5,3.3-3.3v-10"/>
	<path class="st0" d="M90.5,46.9V36.8c0-1.8-1.5-3.3-3.3-3.3h-0.8c-1.6,0-2.9,1.1-3.2,2.5v10.8"/>
	<line class="st0" x1="83.2" y1="46.9" x2="83.2" y2="54.5"/>
	<line class="st0" x1="90.5" y1="54.5" x2="90.5" y2="46.9"/>
	<rect x="83.1" y="46.9" class="st0" width="0.1" height="7.6"/>
</g>
</svg>
