<?xml version="1.0" encoding="UTF-8"?><svg id="Laag_1" xmlns="http://www.w3.org/2000/svg" viewBox="0 0 1043.11 1134.02"><defs><style>.cls-1{fill:#678c8d;}</style></defs><path class="cls-1" d="M646.83,.22c-69.36,12.5-133.66,43.71-190.24,85.19-58.05,42.56-108.36,94.88-153.7,150.56-47.8,58.71-91.34,121.26-131.27,185.55-41.3,66.49-78.1,135.91-107.36,208.57-29.15,72.4-50.52,148.01-60.95,225.42-1.25,9.3-2.35,18.62-3.3,27.96-.39,3.84,5.61,3.81,6,0,7.84-77.29,26.83-153.11,53.96-225.84,27.07-72.55,62.09-141.95,101.77-208.38,38.96-65.22,82.03-128.4,128.82-188.27,44.02-56.33,92.51-109.82,148.44-154.59,54.26-43.44,116.17-78.19,183.97-94.97,8.42-2.08,16.91-3.88,25.45-5.41,3.79-.68,2.19-6.47-1.6-5.79h0Z"/><path class="cls-1" d="M1.26,885.32c62.87,50.56,130.89,94.62,203.15,130.56,46.48,23.12,94.73,42.48,143.63,59.83,58.04,20.59,117.62,36.94,178.41,46.96,77.7,12.81,157.08,15.32,235.2,4.69,82.21-11.19,162.12-37.2,235.23-76.42,6.04-3.24,12.03-6.57,17.97-9.98,3.35-1.92,.33-7.11-3.03-5.18-68.02,39.01-142.37,66.48-219.52,80.65-79.46,14.59-161.19,14.97-241.12,3.96-62.64-8.63-124.18-24.13-184.03-44.39-46.87-15.87-93.3-33.8-138.09-54.85-69.29-32.55-135.05-72.53-196.13-118.67-9.25-6.99-18.39-14.14-27.43-21.4-2.98-2.4-7.25,1.82-4.24,4.24h0Z"/><path class="cls-1" d="M1007.79,852.23c-27.06-6.43-44.01-31.04-55.53-54.62-6.96-14.25-12.66-29.19-17.76-44.19-5.58-16.39-10.19-33.14-13.4-50.16-6.22-33.04-7.02-67.82,1.85-100.47,7.08-26.05,20.72-50.47,39.42-69.96s42.02-33.51,68.39-38.2c3.14-.56,6.3-.96,9.48-1.23,3.82-.32,3.85-6.33,0-6-27.88,2.36-53.61,14.95-74.26,33.57-20.94,18.88-36.63,43.56-45.74,70.18-10.99,32.15-11.85,67.16-7.1,100.55,4.92,34.61,15.86,68.53,29.99,100.44,11.07,24.99,26.95,51.64,53.3,62.68,3.17,1.33,6.43,2.39,9.77,3.19,3.75,.89,5.36-4.89,1.6-5.79h0Z"/><path class="cls-1" d="M930.59,569.08c-61.46-3.51-119.08-27.28-179.27-37.9-28.24-4.98-57.24-7.3-85.78-3.53-13.85,1.83-27.51,5.07-40.54,10.15s-24.82,11.75-36.19,19.51c-22.86,15.6-43.29,34.62-67.17,48.76-20.13,11.92-42.62,20.08-60.85,35.07-8.96,7.38-16.29,16.52-20.64,27.34-4.81,11.97-5.5,25.15-5.32,37.91s1.32,26.13,.03,39.15c-.62,6.25-1.93,12.5-4.25,18.35s-5.81,11.05-8.81,16.49c-5.25,9.53-11.31,22.58-2.57,32.03,4.6,4.98,11.62,6.2,17.93,7.63l23.74,5.38c31.65,7.17,63.31,14.35,94.96,21.52l23.74,5.38c3.76,.85,5.37-4.93,1.6-5.79-31.32-7.1-62.65-14.2-93.97-21.3-15.5-3.51-30.99-7.03-46.49-10.54-6.02-1.36-14.17-2.08-18.07-7.52-3.01-4.2-1.93-9.54-.31-14.05,4.13-11.53,12.37-20.98,15.81-32.85s3.49-24.93,3.13-37.43c-.37-12.95-1.37-26.17,.83-39.02,1.98-11.59,6.83-22.14,14.81-30.83,15.4-16.76,37.51-25.51,57.24-35.92,23.52-12.42,43.65-29.49,64.82-45.36,10.8-8.09,21.95-15.79,33.97-21.97s25.29-10.76,38.71-13.65c27.2-5.87,55.54-5.21,82.99-1.49,59.02,8.01,114.89,30.84,174,38.44,7.28,.93,14.58,1.62,21.91,2.04,3.86,.22,3.85-5.78,0-6h0Z"/><path class="cls-1" d="M647.25,5.86c9.5,2.08,17.61,7.11,24.34,14.07,7.09,7.33,12.38,16.25,16.74,25.46,4.67,9.85,8.15,20.18,11.43,30.56,4.31,13.67,8.23,27.5,10.92,41.59,4.76,25,5.37,51.36-3.89,75.42-7.46,19.4-21.17,37.2-40.15,46.4-10.02,4.85-22.03,7.54-33.03,4.86-5.4-1.32-10.29-3.92-14.03-8.07-3.23-3.59-5.58-8.41-5.95-13.14-.2-2.53,.07-4.78,.86-7.19,.87-2.66-2.21-4.47-4.41-3.39-24.89,12.29-51.34,21.36-78.52,27.02-13.62,2.83-27.41,4.8-41.28,5.86-6.3,.48-13.58,1.26-19.28-1.26-4.08-1.8-7.28-4.94-9.78-8.4-6.57-9.13-10.16-20.21-18.21-28.31-2.73-2.74-6.97,1.5-4.24,4.24,7,7.04,10.53,16.92,16,25.24,2.81,4.27,6.16,8.23,10.52,10.97,5.61,3.52,12.24,4.19,18.73,3.91,14.3-.61,28.65-2.57,42.71-5.2s27.86-6.16,41.42-10.57c15.4-5.01,30.44-11.15,44.95-18.32l-4.41-3.39c-3.77,11.52,2.32,24,11.81,30.71,10.76,7.61,25.44,7.51,37.65,4.03,22.03-6.27,39.25-23.39,49.52-43.41,5.18-10.11,8.83-21.03,10.66-32.25,2.36-14.42,2.16-29.15,.3-43.61-1.9-14.83-5.37-29.38-9.56-43.72-3.5-11.99-7.2-24-12.01-35.54-8.15-19.6-20.18-39.86-40.82-48.1-2.4-.96-4.88-1.7-7.41-2.26-1.58-.35-3.25,.48-3.69,2.1-.41,1.5,.51,3.34,2.1,3.69h0Z"/><path class="cls-1" d="M463.76,245.72l-55.5,126.22c-8.99,20.45-18.13,40.83-26.92,61.37-8.35,19.51-16.2,39.3-21.85,59.78-5.47,19.84-8.9,40.52-7.94,61.16,.47,10.09,1.97,20.17,4.65,29.91s7.13,19.74,9.77,29.91c2.87,11.04,2.48,22.28,1.86,33.56s-.64,22.04,.7,33.15c1.27,10.5,3.07,20.95,3.44,31.54,.31,8.81-.22,17.68-1.64,26.38-5.6,34.43-23.76,66.63-50.77,88.79-3.38,2.77-6.91,5.35-10.55,7.77-3.2,2.13-.2,7.33,3.03,5.18,29.19-19.45,50.54-49.5,60.24-83.14,4.87-16.88,6.76-34.66,5.24-52.18-.97-11.18-3.08-22.22-3.91-33.41s.35-22.54,.64-33.84-1.08-21.62-4.51-32.15-7.31-19.94-9.53-30.39c-4.33-20.33-3.35-41.46,.6-61.77,8.32-42.85,28.05-82.74,45.5-122.41l55.74-126.76,6.88-15.64c1.54-3.5-3.63-6.56-5.18-3.03h0Z"/><path class="cls-1" d="M374.02,741.47c10.06,1.14,20.05,2.81,30.09,4.12,4.11,.53,8.06,.97,12.19,.45,4.53-.57,8.87-1.76,13.06-3.58s8.38-4.61,11.25-8.47c.97-1.3,.21-3.35-1.08-4.1-1.53-.9-3.13-.23-4.1,1.08,.29-.39,0,0-.05,.07-.15,.19-.31,.37-.47,.55-.3,.33-.61,.65-.93,.95-.73,.69-1.2,1.08-1.79,1.5-1.59,1.13-3.3,2.08-5.06,2.9-3.18,1.47-7.54,2.68-11.05,3.15s-7.72,.07-11.57-.43c-4.71-.61-9.4-1.3-14.09-1.98-5.45-.78-10.91-1.57-16.38-2.19-1.61-.18-3,1.51-3,3,0,1.77,1.38,2.82,3,3h0Z"/><path class="cls-1" d="M260.66,533.05c-15.35,6.41-29.42,15.3-42.06,26.09s-23.62,23.31-33.21,36.81-18.13,28.96-25.03,44.58c-7.93,17.95-14.2,36.57-19.49,55.45s-9.59,37.8-13.81,56.84c-.53,2.4-1.06,4.81-1.59,7.21-.35,1.58,.48,3.25,2.1,3.69,1.5,.41,3.34-.51,3.69-2.1,4.17-18.89,8.34-37.79,13.33-56.48,4.95-18.55,10.7-36.92,18.01-54.69,6.55-15.93,14.45-31.33,23.99-45.69,8.9-13.4,19.24-25.86,31.06-36.78s25-20.07,39.49-26.88c1.69-.79,3.41-1.57,5.12-2.28,1.49-.62,2.56-1.99,2.1-3.69-.39-1.41-2.19-2.72-3.69-2.1h0Z"/><path class="cls-1" d="M741.03,841.23c21.7-3.19,42.75-10.4,62.02-20.85,19.2-10.41,36.71-24.1,51.35-40.31,8.28-9.16,15.68-19.14,21.98-29.77,1.97-3.33-3.21-6.35-5.18-3.03-10.91,18.39-25.12,34.64-41.67,48.18-16.39,13.4-35.23,24.09-55.13,31.22-11.33,4.06-23.05,7.01-34.96,8.76-1.6,.24-2.49,2.27-2.1,3.69,.47,1.72,2.08,2.33,3.69,2.1h0Z"/><path class="cls-1" d="M802.06,627.3c28.71-1.46,57.86-2.99,86.35,1.89,8.09,1.39,16.08,3.29,23.89,5.8,1.54,.5,3.27-.58,3.69-2.1,.45-1.62-.55-3.19-2.1-3.69-28.04-9.01-57.83-9.94-87.03-9-8.27,.27-16.53,.68-24.79,1.1-1.62,.08-3,1.32-3,3,0,1.56,1.37,3.08,3,3h0Z"/></svg>