<svg xmlns="http://www.w3.org/2000/svg" xmlns:xlink="http://www.w3.org/1999/xlink" version="1.1" x="0px" y="0px" viewBox="0 0 70 87.5" style="enable-background:new 0 0 70 70;" xml:space="preserve"><g><g><path d="M65.4501953,61.5595703H4.5498047C3.144043,61.5595703,2,60.4160156,2,59.0097656V21.5361328    c0-1.40625,1.144043-2.5507812,2.5498047-2.5507812h24.6000977c0.5522461,0,1,0.4472656,1,1s-0.4477539,1-1,1H4.5498047    C4.246582,20.9853516,4,21.2324219,4,21.5361328v37.4736328c0,0.3027344,0.246582,0.5498047,0.5498047,0.5498047h60.9003906    C65.7583008,59.5595703,66,59.3183594,66,59.0097656V21.5361328c0-0.3085938-0.2416992-0.5507812-0.5498047-0.5507812H40.8500977    c-0.5522461,0-1-0.4472656-1-1s0.4477539-1,1-1h24.6000977C66.855957,18.9853516,68,20.1298828,68,21.5361328v37.4736328    C68,60.4160156,66.855957,61.5595703,65.4501953,61.5595703z"/></g><g><g><path d="M40.8500977,26.6279297H29.1542969c-0.5522461,0-1-0.4472656-1-1V15.2880859     c0-3.7753906,3.0717773-6.8476562,6.8476562-6.8476562s6.8481445,3.0722656,6.8481445,6.8476562v10.3398438     C41.8500977,26.1806641,41.4023438,26.6279297,40.8500977,26.6279297z M30.1542969,24.6279297h9.6958008v-9.3398438     c0-2.6728516-2.1748047-4.8476562-4.8481445-4.8476562c-2.6728516,0-4.8476562,2.1748047-4.8476562,4.8476562V24.6279297z"/></g><g><path d="M43.1625977,26.6279297H26.8417969c-0.5522461,0-1-0.4472656-1-1s0.4477539-1,1-1h16.3208008     c0.5522461,0,1,0.4472656,1,1S43.7148438,26.6279297,43.1625977,26.6279297z"/></g></g><g><path d="M35.0019531,20.1494141c-2.0795898,0-3.7714844-1.6923828-3.7714844-3.7724609s1.6918945-3.7714844,3.7714844-3.7714844    c2.0800781,0,3.7719727,1.6914062,3.7719727,3.7714844S37.0820312,20.1494141,35.0019531,20.1494141z M35.0019531,14.6054688    c-0.9765625,0-1.7714844,0.7949219-1.7714844,1.7714844c0,0.9775391,0.7949219,1.7724609,1.7714844,1.7724609    c0.9770508,0,1.7719727-0.7949219,1.7719727-1.7724609C36.7739258,15.4003906,35.9790039,14.6054688,35.0019531,14.6054688z"/></g><g><g><path d="M18.7397461,39.7861328c-3.3085938,0-6-2.6914062-6-6s2.6914062-6,6-6s6,2.6914062,6,6     S22.0483398,39.7861328,18.7397461,39.7861328z M18.7397461,29.7861328c-2.2055664,0-4,1.7939453-4,4s1.7944336,4,4,4     s4-1.7939453,4-4S20.9453125,29.7861328,18.7397461,29.7861328z"/></g><g><g><g><path d="M28.2797852,52.7587891H9.199707c-0.5522461,0-1-0.4472656-1-1v-5.21875       c0-3.7011719,2.8623047-6.7128906,6.3803711-6.7128906h0.3300781c0.4414062,0,0.8310547,0.2900391,0.9580078,0.7128906       c0.3706055,1.2353516,1.168457,2.7089844,2.8618164,2.7089844c1.8017578,0,2.5561523-1.453125,2.871582-2.6728516       c0.1142578-0.4404297,0.5126953-0.7490234,0.9682617-0.7490234h0.3300781c3.5180664,0,6.3798828,3.0117188,6.3798828,6.7128906       v5.21875C29.2797852,52.3115234,28.8320312,52.7587891,28.2797852,52.7587891z M10.199707,50.7587891h17.0800781v-4.21875       c0-2.4541016-1.7524414-4.4765625-3.9819336-4.6933594c-0.8066406,2.1738281-2.4379883,3.4023438-4.5678711,3.4023438       c-2.0307617,0-3.6479492-1.2294922-4.5229492-3.4052734c-2.2412109,0.2050781-4.0073242,2.2324219-4.0073242,4.6962891       V50.7587891z"/></g></g><g><g><path d="M23.2817383,52.7587891c-0.5522461,0-1-0.4472656-1-1v-3.8066406c0-0.5527344,0.4477539-1,1-1s1,0.4472656,1,1       v3.8066406C24.2817383,52.3115234,23.8339844,52.7587891,23.2817383,52.7587891z"/></g><g><path d="M14.1982422,52.7587891c-0.5522461,0-1-0.4472656-1-1v-3.8066406c0-0.5527344,0.4477539-1,1-1s1,0.4472656,1,1       v3.8066406C15.1982422,52.3115234,14.7504883,52.7587891,14.1982422,52.7587891z"/></g></g></g></g><g><g><path d="M60.5166016,33.0654297h-24.25c-0.5522461,0-1-0.4472656-1-1s0.4477539-1,1-1h24.25c0.5522461,0,1,0.4472656,1,1     S61.0688477,33.0654297,60.5166016,33.0654297z"/></g><g><path d="M60.5166016,40.1074219h-24.25c-0.5522461,0-1-0.4472656-1-1s0.4477539-1,1-1h24.25c0.5522461,0,1,0.4472656,1,1     S61.0688477,40.1074219,60.5166016,40.1074219z"/></g><g><path d="M60.5166016,47.1494141h-24.25c-0.5522461,0-1-0.4472656-1-1s0.4477539-1,1-1h24.25c0.5522461,0,1,0.4472656,1,1     S61.0688477,47.1494141,60.5166016,47.1494141z"/></g><g><path d="M60.5166016,54.1904297h-24.25c-0.5522461,0-1-0.4472656-1-1s0.4477539-1,1-1h24.25c0.5522461,0,1,0.4472656,1,1     S61.0688477,54.1904297,60.5166016,54.1904297z"/></g></g></g></svg>