<svg xmlns="http://www.w3.org/2000/svg" xmlns:xlink="http://www.w3.org/1999/xlink" viewBox="0 0 464 566.25" version="1.1" x="0px" y="0px"><title>light-food</title><desc>Created with Sketch.</desc><g stroke="none" stroke-width="1" fill="none" fill-rule="evenodd"><path d="M342.717,376.3379 L151.041,376.3379 C95.647,344.3709 60.029,286.8319 55.796,223.6399 L93.502,223.8089 L195.189,223.8089 L437.963,223.6399 C433.731,286.8319 398.112,344.3709 342.717,376.3379 L342.717,376.3379 Z M336.702,414.4709 C336.702,421.4899 331.012,427.1819 323.991,427.1819 L169.767,427.1819 C162.747,427.1819 157.057,421.4909 157.057,414.4709 L157.057,401.7599 L336.702,401.7599 L336.702,414.4709 Z M51.57,134.3189 C51.594,133.8529 51.629,133.3839 51.678,132.9129 C52.043,129.3639 53.189,125.9129 55.027,122.8559 C59.427,115.5329 66.786,111.0519 75.033,110.4529 C75.66,110.4069 76.286,110.3849 76.909,110.3849 C82.985,110.3849 88.795,112.5409 93.439,116.5549 C93.439,116.5559 93.44,116.5559 93.441,116.5569 C94.203,117.2159 94.946,117.9479 95.709,118.7939 C95.882,118.9839 96.06,119.1709 96.243,119.3519 L176.601,198.3879 L117.756,198.3879 L107.894,190.9139 L60.71,153.7799 C54.763,149.0999 51.189,141.8779 51.57,134.3189 L51.57,134.3189 Z M170.049,109.9219 C175.312,107.7829 178.545,102.5069 178.113,96.8419 C177.899,94.0249 178.03,91.1829 178.504,88.3949 C180.865,74.4669 191.275,63.5059 205.052,60.4099 C210.045,59.2889 214.082,55.4569 215.196,50.4619 C218.819,34.2089 234.529,23.6589 250.97,26.4509 C267.447,29.2469 278.781,44.3929 276.816,60.9589 C276.227,65.9269 278.323,70.8829 282.577,73.5159 C294.609,80.9649 300.862,94.8239 298.498,108.7519 C298.055,111.3629 297.299,113.9489 296.251,116.4389 C294.029,121.7129 295.531,127.7249 299.93,131.3869 C305.043,135.6429 308.931,141.0569 311.408,147.0619 C294.985,159.3219 283.228,177.4839 279.294,198.3879 L254.363,198.3879 C250.95,196.4009 247.856,193.9149 245.175,190.9939 L281.54,165.1769 C286.981,161.3149 288.925,153.9409 285.683,148.1089 C281.85,141.2139 273.02,139.3399 266.767,143.7789 L241.56,161.6739 L244.992,141.4439 L273.937,120.8949 C279.379,117.0309 281.322,109.6529 278.077,103.8199 C274.241,96.9259 265.412,95.0579 259.164,99.4959 L251.142,105.1919 L255.174,81.4239 C256.375,74.3459 251.611,67.6339 244.531,66.4339 C237.468,65.2329 230.741,69.9969 229.541,77.0759 L225.68,99.8399 L220.818,92.9909 C216.661,87.1359 208.543,85.7599 202.692,89.9159 C196.837,94.0719 195.46,102.1879 199.616,108.0419 L219.529,136.0919 L216.098,156.3219 L199.036,132.2889 C194.879,126.4339 186.763,125.0569 180.91,129.2139 C175.056,133.3699 173.679,141.4849 177.835,147.3399 L203.58,183.6039 C202.506,184.1969 201.403,184.7229 200.284,185.2129 L147.359,133.1569 C151.356,122.6419 159.443,114.2339 170.049,109.9219 L170.049,109.9219 Z M361.09,156.5439 C387.322,156.5439 409.473,174.2809 416.223,198.3879 L305.951,198.3879 C312.701,174.2789 334.857,156.5439 361.09,156.5439 L361.09,156.5439 Z M451.1,198.3879 L442.904,198.3879 C435.647,159.8199 401.733,130.5439 361.09,130.5439 C351.783,130.5439 342.836,132.0959 334.474,134.9259 C331.629,128.6799 327.832,122.8599 323.16,117.7199 C323.545,116.1899 323.87,114.6489 324.132,113.1009 C327.801,91.4829 319.613,69.9579 303.033,56.2649 C302.598,29.0739 282.893,5.4959 255.319,0.8179 C227.889,-3.8391 201.561,11.8009 192.089,37.1499 C171.624,44.4749 156.58,62.1709 152.87,84.0439 C152.548,85.9399 152.318,87.8489 152.177,89.7649 C141.974,95.5959 133.646,103.9439 127.824,113.9439 L114.733,101.0669 C113.347,99.5549 111.905,98.1499 110.44,96.8839 C96.857,85.1429 78.823,81.8119 62.724,86.4019 L64.786,78.9319 C66.696,72.0109 62.635,64.8519 55.714,62.9419 C48.798,61.0349 41.634,65.0919 39.724,72.0139 L36.707,82.9409 L21.779,70.0349 C16.912,65.8289 9.606,65.4829 4.688,69.6279 C-1.6,74.9299 -1.462,84.3139 4.499,89.4659 L20.944,103.6799 L10.259,109.7409 C4.715,112.8869 1.887,120.3959 4.382,126.2609 C6.542,131.3389 11.382,134.2239 16.38,134.2239 C18.554,134.2239 20.758,133.6779 22.783,132.5279 L25.773,130.8319 C25.508,133.6689 25.462,136.5449 25.673,139.4429 C26.667,153.1189 32.928,165.5889 43.308,174.5619 C44.78,175.8319 46.379,177.0549 48.066,178.1989 L74.707,198.3879 L42.659,198.3879 C35.638,198.3879 29.948,204.0859 29.948,211.1079 C29.952,285.7239 68.636,354.9189 131.635,394.3529 L131.635,414.4709 C131.635,435.5299 148.707,452.6039 169.767,452.6039 L323.991,452.6039 C345.051,452.6039 362.123,435.5299 362.123,414.4709 L362.123,394.3529 C425.123,354.9189 463.807,285.7239 463.81,211.1079 C463.81,204.0849 458.121,198.3879 451.1,198.3879 L451.1,198.3879 Z" fill="#000000"/></g></svg>