<?xml version="1.0" encoding="utf-8"?>
<!-- Generator: Adobe Illustrator 22.1.0, SVG Export Plug-In . SVG Version: 6.00 Build 0)  -->
<svg version="1.1" id="Laag_1" xmlns="http://www.w3.org/2000/svg" xmlns:xlink="http://www.w3.org/1999/xlink" x="0px" y="0px"
	 viewBox="0 0 464 566.2" style="enable-background:new 0 0 464 566.2;" xml:space="preserve">
<style type="text/css">
	.st0{fill:#FFFFFF;}
</style>
<title>light-food</title>
<desc>Created with Sketch.</desc>
<g>
	<path class="st0" d="M342.7,376.3H151c-55.4-32-91-89.5-95.2-152.7l37.7,0.2h101.7l242.8-0.2C433.7,286.8,398.1,344.4,342.7,376.3
		L342.7,376.3z M336.7,414.5c0,7-5.7,12.7-12.7,12.7H169.8c-7,0-12.7-5.7-12.7-12.7v-12.7h179.6V414.5z M51.6,134.3
		c0-0.5,0.1-0.9,0.1-1.4c0.4-3.5,1.5-7,3.3-10.1c4.4-7.3,11.8-11.8,20-12.4c0.6,0,1.3-0.1,1.9-0.1c6.1,0,11.9,2.2,16.5,6.2
		c0,0,0,0,0,0c0.8,0.7,1.5,1.4,2.3,2.2c0.2,0.2,0.4,0.4,0.5,0.6l80.4,79h-58.8l-9.9-7.5l-47.2-37.1
		C54.8,149.1,51.2,141.9,51.6,134.3L51.6,134.3z M170,109.9c5.3-2.1,8.5-7.4,8.1-13.1c-0.2-2.8-0.1-5.7,0.4-8.4
		c2.4-13.9,12.8-24.9,26.5-28c5-1.1,9-5,10.1-9.9c3.6-16.3,19.3-26.8,35.8-24c16.5,2.8,27.8,17.9,25.8,34.5c-0.6,5,1.5,9.9,5.8,12.6
		c12,7.4,18.3,21.3,15.9,35.2c-0.4,2.6-1.2,5.2-2.2,7.7c-2.2,5.3-0.7,11.3,3.7,14.9c5.1,4.3,9,9.7,11.5,15.7
		c-16.4,12.3-28.2,30.4-32.1,51.3h-24.9c-3.4-2-6.5-4.5-9.2-7.4l36.4-25.8c5.4-3.9,7.4-11.2,4.1-17.1c-3.8-6.9-12.7-8.8-18.9-4.3
		l-25.2,17.9l3.4-20.2l28.9-20.5c5.4-3.9,7.4-11.2,4.1-17.1c-3.8-6.9-12.7-8.8-18.9-4.3l-8,5.7l4-23.8c1.2-7.1-3.6-13.8-10.6-15
		c-7.1-1.2-13.8,3.6-15,10.6l-3.9,22.8l-4.9-6.8c-4.2-5.9-12.3-7.2-18.1-3.1c-5.9,4.2-7.2,12.3-3.1,18.1l19.9,28.1l-3.4,20.2
		l-17.1-24c-4.2-5.9-12.3-7.2-18.1-3.1c-5.9,4.2-7.2,12.3-3.1,18.1l25.7,36.3c-1.1,0.6-2.2,1.1-3.3,1.6l-52.9-52.1
		C151.4,122.6,159.4,114.2,170,109.9L170,109.9z M361.1,156.5c26.2,0,48.4,17.7,55.1,41.8H306C312.7,174.3,334.9,156.5,361.1,156.5
		L361.1,156.5z M451.1,198.4h-8.2c-7.3-38.6-41.2-67.8-81.8-67.8c-9.3,0-18.3,1.6-26.6,4.4c-2.8-6.2-6.6-12.1-11.3-17.2
		c0.4-1.5,0.7-3.1,1-4.6c3.7-21.6-4.5-43.1-21.1-56.8c-0.4-27.2-20.1-50.8-47.7-55.4c-27.4-4.7-53.8,11-63.2,36.3
		c-20.5,7.3-35.5,25-39.2,46.9c-0.3,1.9-0.6,3.8-0.7,5.7c-10.2,5.8-18.5,14.2-24.4,24.2l-13.1-12.9c-1.4-1.5-2.8-2.9-4.3-4.2
		C96.9,85.1,78.8,81.8,62.7,86.4l2.1-7.5c1.9-6.9-2.2-14.1-9.1-16c-6.9-1.9-14.1,2.2-16,9.1l-3,10.9L21.8,70
		c-4.9-4.2-12.2-4.6-17.1-0.4c-6.3,5.3-6.2,14.7-0.2,19.8l16.4,14.2l-10.7,6.1c-5.5,3.1-8.4,10.7-5.9,16.5c2.2,5.1,7,8,12,8
		c2.2,0,4.4-0.5,6.4-1.7l3-1.7c-0.3,2.8-0.3,5.7-0.1,8.6c1,13.7,7.3,26.1,17.6,35.1c1.5,1.3,3.1,2.5,4.8,3.6l26.6,20.2h-32
		c-7,0-12.7,5.7-12.7,12.7c0,74.6,38.7,143.8,101.7,183.2v20.1c0,21.1,17.1,38.1,38.1,38.1H324c21.1,0,38.1-17.1,38.1-38.1v-20.1
		c63-39.4,101.7-108.6,101.7-183.2C463.8,204.1,458.1,198.4,451.1,198.4L451.1,198.4z"/>
</g>
</svg>
